<svg width="73" height="16" viewBox="0 0 73 16" fill="none" xmlns="http://www.w3.org/2000/svg">
<path d="M8.7189 12.2712H3.96121L2.79302 15.0589H0L6.46749 0.275391H6.59493L13.0412 15.0589H9.78089L8.7189 12.2712ZM7.77373 9.89524L6.39315 6.43167L4.94885 9.89524H7.77373Z" fill="#FAFAFA"/>
<path d="M21.5368 3.22131C21.0286 3.18425 20.5211 3.30212 20.0819 3.55922C19.9033 3.6882 19.7614 3.86113 19.6701 4.06105C19.5789 4.26097 19.5415 4.48103 19.5616 4.69966C19.5743 4.94464 19.6504 5.18222 19.7825 5.3894C19.9145 5.59659 20.0982 5.76637 20.3156 5.88234C20.9374 6.29096 21.6081 6.62086 22.3121 6.86439C22.9231 7.07901 23.5075 7.36245 24.0537 7.70917C24.5478 8.04713 24.9551 8.49561 25.2432 9.01856C25.5806 9.6703 25.7416 10.3981 25.7104 11.1305C25.7156 11.874 25.5049 12.6032 25.1037 13.2307C24.7025 13.8581 24.1277 14.3572 23.4484 14.668C22.6241 15.0594 21.7171 15.2477 20.8041 15.2171C19.9471 15.2178 19.095 15.0897 18.2766 14.8369C17.431 14.5932 16.6337 14.2075 15.9189 13.6965L17.2146 11.5001C17.7299 11.8776 18.299 12.1766 18.9031 12.3871C19.4513 12.6051 20.0335 12.7266 20.6235 12.7461C21.1685 12.7585 21.7071 12.6274 22.1847 12.366C22.3982 12.2372 22.5705 12.0506 22.6814 11.8281C22.7924 11.6056 22.8374 11.3564 22.8112 11.1094C22.8112 10.3808 22.1209 9.74718 20.6873 9.2192C19.985 8.95268 19.3005 8.64232 18.6376 8.28995C18.0738 7.98349 17.5872 7.55384 17.2146 7.03335C16.795 6.41041 16.5866 5.67043 16.6199 4.92141C16.6052 4.37083 16.7083 3.82343 16.9226 3.31551C17.1368 2.80758 17.4571 2.35074 17.8624 1.97527C18.7526 1.17899 19.9041 0.732292 21.1014 0.718667C22.0033 0.700002 22.9026 0.82113 23.767 1.0777C24.5192 1.33399 25.2335 1.68913 25.891 2.13366L24.829 4.24559C23.8357 3.63431 22.7034 3.28202 21.5368 3.22131Z" fill="#FAFAFA"/>
<path d="M39.1343 0.803223V3.55929H35.651V15.0588H32.8155V3.55929H29.4702V0.803223H39.1343Z" fill="#FAFAFA"/>
<path d="M43.7642 3.55929V0.803223H53.5557V3.55929H43.7642ZM43.7642 9.31431V6.55824H52.791V9.27207L43.7642 9.31431ZM46.589 12.3977H53.8212V15.101H43.7642V12.3555L46.589 12.3977Z" fill="#FAFAFA"/>
<path d="M73.3087 15.0587H66.6713C66.1756 15.1641 65.6701 15.2172 65.1633 15.2171C63.8797 15.2269 62.6174 14.8912 61.51 14.2456C60.6799 13.7689 59.9525 13.1341 59.3692 12.3777C58.7859 11.6213 58.3583 10.758 58.1107 9.8371C57.8632 8.91625 57.8006 7.95592 57.9265 7.011C58.0524 6.06607 58.3643 5.15508 58.8444 4.33009C59.4848 3.22193 60.4032 2.29781 61.51 1.64793C62.6153 0.994375 63.8774 0.649414 65.1633 0.649414C66.4492 0.649414 67.7113 0.994375 68.8165 1.64793C69.9294 2.30066 70.8575 3.22351 71.5139 4.33009C72.0455 5.21471 72.3769 6.20383 72.4851 7.22868C72.5933 8.25353 72.4757 9.28952 72.1405 10.2646C71.895 10.9979 71.5367 11.6889 71.0785 12.3132H73.3618V15.0587H73.3087ZM61.372 10.2329C61.7627 10.9114 62.3222 11.4787 62.9968 11.8802C63.6801 12.297 64.468 12.5129 65.2695 12.5033C66.0466 12.5053 66.8085 12.2894 67.4678 11.8802C68.1217 11.4735 68.6594 10.9062 69.0289 10.2329C69.3989 9.52896 69.592 8.74637 69.5917 7.95205C69.5911 7.15525 69.3904 6.37122 69.0076 5.67116C68.6397 5.00638 68.1016 4.45002 67.448 4.05838C66.7943 3.66675 66.0482 3.45372 65.2852 3.44086C64.5221 3.428 63.7692 3.61576 63.1025 3.98515C62.4359 4.35454 61.8792 4.89244 61.4888 5.54445C61.4601 5.58431 61.4352 5.62673 61.4145 5.67116C61.022 6.36738 60.8206 7.15398 60.8304 7.95205C60.8061 8.74647 60.9929 9.53322 61.372 10.2329Z" fill="#FAFAFA"/>
</svg>
