<svg width="54" height="52" viewBox="0 0 54 52" fill="none" xmlns="http://www.w3.org/2000/svg">
<path d="M13.5 4.5C16.0846 2.1401 20.5 0.999999 27 1C33.5 1 39.5 2.5 43.5 10C38.5 11 33.6034 11.0992 29 8.5C22 4.54762 16.1667 3.5 13.5 4.5Z" fill="#6FBA6D"/>
<path d="M4.79562 16.5238C4.28071 13.3492 5.56798 6.80952 14.8364 6.04762C26.4219 5.09524 28.3528 15.9524 45.731 11L42.5 5C43.5 3.5 45.5 6 47.855 7.57143C52.0288 10.3565 49.979 13.2857 48.2412 15.7619C49.3997 17.7302 51.7555 23.3048 51.9099 29.8571C52.0644 36.4095 51.3307 41.2222 50.9445 42.8095C50.7514 43.381 50.6741 44.6 51.9099 44.9048C53.4547 45.2857 53.8408 51 49.7859 49.8571C45.731 48.7143 46.5034 49.0952 42.4484 49.8571C38.3935 50.6191 30.2837 51 26.4219 51C22.56 51 11.7469 50.0476 10.0091 49.4762C8.27127 48.9048 6.72653 48.7143 3.0578 49.8571C-0.61094 51 1.51307 44.5238 2.67161 44.9048C3.83016 45.2857 3.44398 46.8095 5.56799 47C7.69199 47.1905 -1.96258 45.2857 5.1818 18.619C5.82544 16.7143 9.46843 13.4762 18.8913 15.7619L29.7044 19.9524C31.6353 20.6508 36.5785 21.6667 40.9037 20.1429C41.1612 20.0159 40.981 19.7238 38.2004 19.5714C34.7248 19.381 32.0215 19 22.9462 15.1905C13.8709 11.381 7.4989 11.381 4.79562 16.5238Z" fill="#6FBA6D"/>
<path d="M13.5 4.5C16.0846 2.1401 20.5 0.999999 27 1C33.5 1 39.5 2.5 43.5 10C38.5 11 33.6034 11.0992 29 8.5C22 4.54762 16.1667 3.5 13.5 4.5Z" stroke="#519C4F"/>
<path d="M4.79562 16.5238C4.28071 13.3492 5.56798 6.80952 14.8364 6.04762C26.4219 5.09524 28.3528 15.9524 45.731 11L42.5 5C43.5 3.5 45.5 6 47.855 7.57143C52.0288 10.3565 49.979 13.2857 48.2412 15.7619C49.3997 17.7302 51.7555 23.3048 51.9099 29.8571C52.0644 36.4095 51.3307 41.2222 50.9445 42.8095C50.7514 43.381 50.6741 44.6 51.9099 44.9048C53.4547 45.2857 53.8408 51 49.7859 49.8571C45.731 48.7143 46.5034 49.0952 42.4484 49.8571C38.3935 50.6191 30.2837 51 26.4219 51C22.56 51 11.7469 50.0476 10.0091 49.4762C8.27127 48.9048 6.72653 48.7143 3.0578 49.8571C-0.61094 51 1.51307 44.5238 2.67161 44.9048C3.83016 45.2857 3.44398 46.8095 5.56799 47C7.69199 47.1905 -1.96258 45.2857 5.1818 18.619C5.82544 16.7143 9.46843 13.4762 18.8913 15.7619L29.7044 19.9524C31.6353 20.6508 36.5785 21.6667 40.9037 20.1429C41.1612 20.0159 40.981 19.7238 38.2004 19.5714C34.7248 19.381 32.0215 19 22.9462 15.1905C13.8709 11.381 7.4989 11.381 4.79562 16.5238Z" stroke="#519C4F"/>
<path d="M16.5341 42C18.8223 41.9275 23.3153 40.087 22.9825 33.3043C20.5557 33.7391 15.8685 36.087 16.5341 42Z" fill="#3B7B3A"/>
<path d="M13.83 41.7826C14.3847 38.9565 14.2876 32.913 9.46174 31.3478C8.62969 34.2464 8.33848 40.3913 13.83 41.7826Z" fill="#3B7B3A"/>
<path d="M15.9101 34.8261C17.7822 32.942 20.6528 27.7391 17.1582 22C15.4247 23.8841 12.7483 29.087 15.9101 34.8261Z" fill="#3B7B3A"/>
<path d="M16.5341 42C18.8223 41.9275 23.3153 40.087 22.9825 33.3043C20.5557 33.7391 15.8685 36.087 16.5341 42Z" stroke="#3B7B3A"/>
<path d="M13.83 41.7826C14.3847 38.9565 14.2876 32.913 9.46174 31.3478C8.62969 34.2464 8.33848 40.3913 13.83 41.7826Z" stroke="#3B7B3A"/>
<path d="M15.9101 34.8261C17.7822 32.942 20.6528 27.7391 17.1582 22C15.4247 23.8841 12.7483 29.087 15.9101 34.8261Z" stroke="#3B7B3A"/>
<path d="M21 2.85237C21.5 1.64217 23 1.79205 24 2.85237C22.5 3.29205 22.5 4.10527 21 2.85237Z" fill="#3B7B3A"/>
<path d="M30.2527 2.62576C30.9713 2.09071 31.8639 2.21678 32.6133 3.70069C31.0963 3.90264 31.0963 3.90264 30.2527 2.62576Z" fill="#3B7B3A"/>
<path d="M25.2527 4.62576C25.9713 4.09071 26.8639 4.21678 27.6133 5.70069C26.0963 5.90264 26.0963 5.90264 25.2527 4.62576Z" fill="#3B7B3A"/>
<path d="M28.4912 4.03786C27.6758 4.40912 26.8299 4.09742 26.4107 2.48873C27.9362 2.61165 27.9362 2.61165 28.4912 4.03786Z" fill="#3B7B3A"/>
<path d="M35.5857 7.54201C35.5598 8.4376 34.9073 9.0597 33.2785 8.72738C34.0608 7.41203 34.0608 7.41203 35.5857 7.54201Z" fill="#3B7B3A"/>
<path d="M31.5857 5.54201C31.5598 6.4376 30.9073 7.0597 29.2785 6.72738C30.0608 5.41203 30.0608 5.41203 31.5857 5.54201Z" fill="#3B7B3A"/>
<path d="M40.5652 8.88871C39.7833 9.32623 38.9145 9.08566 38.3636 7.51722C39.894 7.51336 39.894 7.51336 40.5652 8.88871Z" fill="#3B7B3A"/>
<path d="M37.5652 5.88871C36.7833 6.32623 35.9145 6.08566 35.3636 4.51722C36.894 4.51336 36.894 4.51336 37.5652 5.88871Z" fill="#3B7B3A"/>
</svg>
