<svg width="154" height="91" viewBox="0 0 154 91" fill="none" xmlns="http://www.w3.org/2000/svg">
<path d="M134.375 54.9999C133.055 54.9999 131.984 56.0703 131.984 57.3905V74.1416H128.181C127.243 65.85 119.762 59.8884 111.471 60.8255C104.47 61.6168 98.9462 67.1413 98.1546 74.1416H48.3125V4.81348H131.984V12.332C131.984 13.6522 133.055 14.7226 134.375 14.7226C135.695 14.7226 136.766 13.6522 136.766 12.332V2.42285C136.766 1.10263 135.695 0.0322266 134.375 0.0322266H45.9219C44.6017 0.0322266 43.5312 1.10263 43.5312 2.42285V4.81348H16.1538C10.1524 4.82125 5.28902 9.68438 5.28125 15.686V19.1572C5.28125 20.4775 6.35165 21.5479 7.67188 21.5479H10.4522L8.62813 43.4579C3.85435 44.7005 0.516734 49.003 0.5 53.936V74.1416C0.5 75.4618 1.5704 76.5322 2.89062 76.5322H7.73164C8.38697 85.0811 15.8487 91.4802 24.3976 90.8249C32.0356 90.2395 38.1045 84.1703 38.6902 76.5322C38.7118 76.5322 38.7285 76.5442 38.75 76.5442H43.5312C43.5312 77.8644 44.6017 78.9348 45.9219 78.9348H98.3722C100.075 87.1063 108.08 92.3498 116.252 90.6468C122.138 89.4201 126.737 84.8208 127.963 78.9348H134.375C135.695 78.9348 136.766 77.8644 136.766 76.5442V57.3905C136.766 56.07 135.695 54.9999 134.375 54.9999ZM23.2109 86.0947C17.2696 86.0947 12.4531 81.2782 12.4531 75.3369C12.4531 69.3956 17.2696 64.5791 23.2109 64.5791C29.1522 64.5791 33.9688 69.3956 33.9688 75.3369C33.9622 81.2755 29.1495 86.0882 23.2109 86.0947ZM43.5312 71.751H38.75C38.6098 71.7656 38.4712 71.7934 38.3364 71.8347C36.4138 63.4815 28.0836 58.2688 19.7308 60.1914C13.9712 61.517 9.46455 65.9988 8.10697 71.751H5.28125V53.936C5.28513 50.5736 8.01015 47.8486 11.3726 47.8447H43.5312V71.751ZM43.5312 43.0635H13.4572L15.2502 21.5479H43.5312V43.0635ZM43.5312 16.7666H10.0625V15.686C10.0664 12.3236 12.7914 9.59861 16.1538 9.59473H43.5312V16.7666ZM123.484 76.4366C123.177 81.9058 118.648 86.1805 113.17 86.1712H113.168C108.152 86.1602 103.869 82.5476 103.012 77.6056C103.431 76.8735 103.384 75.9639 102.89 75.2795C103.21 69.5928 108.079 65.2416 113.766 65.5611C119.453 65.8805 123.804 70.7496 123.484 76.4366Z" fill="#6FBA6D"/>
<path d="M131.984 19.1572H98.5156C97.1954 19.1572 96.125 20.2276 96.125 21.5479C96.125 22.8681 97.1954 23.9385 98.5156 23.9385H131.984C133.305 23.9385 134.375 22.8681 134.375 21.5479C134.375 20.2276 133.305 19.1572 131.984 19.1572Z" fill="#6FBA6D"/>
<path d="M136.766 45.4541H84.1719C82.8517 45.4541 81.7812 46.5245 81.7812 47.8447C81.7812 49.1649 82.8517 50.2353 84.1719 50.2353H136.766C138.086 50.2353 139.156 49.1649 139.156 47.8447C139.156 46.5245 138.086 45.4541 136.766 45.4541Z" fill="#6FBA6D"/>
<path d="M131.984 31.1104H105.688C104.367 31.1104 103.297 32.1808 103.297 33.501C103.297 34.8212 104.367 35.8916 105.688 35.8916H131.984C133.305 35.8916 134.375 34.8212 134.375 33.501C134.375 32.1808 133.305 31.1104 131.984 31.1104Z" fill="#6FBA6D"/>
<path d="M141.547 23.9385H146.328C147.648 23.9385 148.719 22.8681 148.719 21.5479C148.719 20.2276 147.648 19.1572 146.328 19.1572H141.547C140.227 19.1572 139.156 20.2276 139.156 21.5479C139.156 22.8681 140.227 23.9385 141.547 23.9385Z" fill="#6FBA6D"/>
<path d="M148.719 45.4541H143.938C142.617 45.4541 141.547 46.5245 141.547 47.8447C141.547 49.1649 142.617 50.2353 143.938 50.2353H148.719C150.039 50.2353 151.109 49.1649 151.109 47.8447C151.109 46.5245 150.039 45.4541 148.719 45.4541Z" fill="#6FBA6D"/>
<path d="M151.109 31.1104H141.547C140.227 31.1104 139.156 32.1808 139.156 33.501C139.156 34.8212 140.227 35.8916 141.547 35.8916H151.109C152.43 35.8916 153.5 34.8212 153.5 33.501C153.5 32.1808 152.43 31.1104 151.109 31.1104Z" fill="#6FBA6D"/>
</svg>
