<svg width="18" height="18" viewBox="0 0 18 18" fill="none" xmlns="http://www.w3.org/2000/svg">
<path d="M10.3252 9.00005L17.4752 1.85005C17.8402 1.48505 17.8402 0.891304 17.4752 0.525054C17.1077 0.158804 16.5152 0.158804 16.1502 0.525054L9.00018 7.67505L1.85018 0.525054C1.48393 0.158804 0.891426 0.158804 0.525176 0.525054C0.158926 0.891304 0.158926 1.48505 0.525176 1.85005L7.67518 9.00005L0.525176 16.1501C0.158926 16.5151 0.158926 17.1088 0.525176 17.4751C0.707676 17.6576 0.947676 17.7501 1.18768 17.7501C1.42768 17.7501 1.66768 17.6576 1.85018 17.4751L9.00018 10.3251L16.1502 17.4751C16.3314 17.6576 16.5714 17.7501 16.8127 17.7501C17.0502 17.7501 17.2914 17.6576 17.4752 17.4751C17.8402 17.1088 17.8402 16.5151 17.4752 16.1501L10.3252 9.00005Z" fill="#3B7B3A"/>
</svg>
