<svg width="130" height="112" viewBox="0 0 130 112" fill="none" xmlns="http://www.w3.org/2000/svg">
<path d="M129.318 62.9968C129.318 62.9962 129.318 62.9959 129.318 62.9952L104.868 1.60302C104.349 0.29859 102.87 -0.338212 101.566 0.180699C101.565 0.181017 101.564 0.181334 101.563 0.18197L2.3718 39.6789C1.96728 39.8537 1.61647 40.1327 1.35495 40.4873C0.530032 40.916 0.00889743 41.7644 0 42.6939V108.789C0 110.193 1.13823 111.331 2.54212 111.331H109.311C110.715 111.331 111.853 110.193 111.853 108.789V72.6909L127.899 66.3C129.203 65.7798 129.839 64.3009 129.318 62.9968ZM106.769 106.247H5.08424V45.236H106.769V106.247ZM42.4153 40.1645L84.9806 23.2034C88.7795 27.1965 94.0432 29.4659 99.5546 29.4875L103.8 40.1645H42.4153ZM111.853 67.2304V42.6939C111.853 41.29 110.715 40.1517 109.311 40.1517H109.271L103.884 26.6226C103.824 26.5098 103.754 26.4024 103.675 26.3023C103.403 25.0779 102.269 24.2425 101.019 24.3448C95.8907 24.8123 90.8742 22.6521 87.6905 18.6047C86.8983 17.627 85.5059 17.3839 84.4289 18.0353C84.3082 18.0496 84.1884 18.0718 84.0705 18.1014L32.1045 38.7943C31.4756 39.0408 30.9726 39.5299 30.7088 40.1517H14.9273L101.085 5.84582L123.656 62.5224L111.853 67.2304Z" fill="#6FBA6D"/>
<path d="M11.9835 89.0851C16.9191 90.544 20.7812 94.4013 22.2461 99.3349C22.5673 100.412 23.5578 101.15 24.6814 101.15C24.8133 101.142 24.9442 101.122 25.0729 101.092C25.187 101.124 25.3036 101.148 25.4212 101.163H86.4321C86.537 101.149 86.6406 101.128 86.7422 101.099C88.0124 101.408 89.2923 100.629 89.6015 99.3591C89.6024 99.3543 89.6037 99.3499 89.6047 99.3451C91.0658 94.4064 94.9285 90.5437 99.8672 89.0826C101.065 88.7165 101.809 87.523 101.611 86.2862C101.645 86.1629 101.67 86.0371 101.685 85.91V65.573C101.67 65.4456 101.644 65.3198 101.609 65.1968C101.808 63.9597 101.063 62.7656 99.8647 62.4005C94.926 60.9397 91.0642 57.0754 89.6072 52.1354C89.2392 50.9295 88.034 50.1834 86.7905 50.3915C86.673 50.3588 86.5532 50.3349 86.4321 50.3203H25.4212C25.2931 50.3356 25.1663 50.361 25.0424 50.3966C23.806 50.1996 22.6131 50.9434 22.2461 52.1405C20.784 57.0782 16.9216 60.9397 11.9835 62.4005C10.7859 62.7665 10.0417 63.9601 10.2396 65.1968C10.2066 65.3204 10.1828 65.4459 10.1685 65.573V85.91C10.1831 86.0295 10.2069 86.1477 10.2396 86.2634C10.0312 87.508 10.777 88.7149 11.9835 89.0851ZM15.2527 66.6051C20.3573 64.5549 24.4031 60.5091 26.4533 55.4046H85.3975C87.4486 60.5091 91.4954 64.5549 96.6006 66.6051V84.8779C91.4976 86.9303 87.4524 90.9755 85.4 96.0785H26.4533C24.4008 90.9755 20.3557 86.9303 15.2527 84.8779V66.6051Z" fill="#6FBA6D"/>
<path d="M55.9266 90.9942C64.3505 90.9942 71.1793 84.1655 71.1793 75.7415C71.1793 67.3175 64.3505 60.4888 55.9266 60.4888C47.5026 60.4888 40.6738 67.3175 40.6738 75.7415C40.6821 84.162 47.5061 90.986 55.9266 90.9942ZM55.9266 65.573C61.5424 65.573 66.095 70.1256 66.095 75.7415C66.095 81.3574 61.5424 85.91 55.9266 85.91C50.3107 85.91 45.7581 81.3574 45.7581 75.7415C45.7581 70.1256 50.3107 65.573 55.9266 65.573Z" fill="#6FBA6D"/>
<path d="M27.9636 79.5546C30.0694 79.5546 31.7768 77.8472 31.7768 75.7414C31.7768 73.6356 30.0694 71.9282 27.9636 71.9282C25.8577 71.9282 24.1504 73.6356 24.1504 75.7414C24.1504 77.8476 25.8577 79.5546 27.9636 79.5546ZM27.9636 74.4703C28.6655 74.4703 29.2346 75.0395 29.2346 75.7414C29.2346 76.4434 28.6655 77.0125 27.9636 77.0125C27.2616 77.0125 26.6925 76.4434 26.6925 75.7414C26.6925 75.0395 27.2616 74.4703 27.9636 74.4703Z" fill="#6FBA6D"/>
<path d="M83.8898 79.5546C85.9957 79.5546 87.703 77.8472 87.703 75.7414C87.703 73.6356 85.9957 71.9282 83.8898 71.9282C81.784 71.9282 80.0767 73.6356 80.0767 75.7414C80.0767 77.8476 81.784 79.5546 83.8898 79.5546ZM83.8898 74.4703C84.5918 74.4703 85.1609 75.0395 85.1609 75.7414C85.1609 76.4434 84.5918 77.0125 83.8898 77.0125C83.1879 77.0125 82.6188 76.4434 82.6188 75.7414C82.6188 75.0395 83.1879 74.4703 83.8898 74.4703Z" fill="#6FBA6D"/>
</svg>
