<svg width="20" height="14" viewBox="0 0 20 14" fill="none" xmlns="http://www.w3.org/2000/svg">
<path fill-rule="evenodd" clip-rule="evenodd" d="M0.374996 6.99989C0.374996 7.18223 0.447427 7.35709 0.576359 7.48603C0.70529 7.61496 0.880159 7.68739 1.0625 7.68739L17.2779 7.68739L12.9507 12.0131C12.8216 12.1422 12.7491 12.3173 12.7491 12.4999C12.7491 12.6825 12.8216 12.8575 12.9507 12.9866C13.0798 13.1157 13.2549 13.1883 13.4375 13.1883C13.6201 13.1883 13.7951 13.1157 13.9242 12.9866L19.4242 7.48664C19.4883 7.42278 19.5391 7.34691 19.5737 7.26339C19.6084 7.17986 19.6262 7.09032 19.6262 6.99989C19.6262 6.90946 19.6084 6.81992 19.5737 6.73639C19.5391 6.65287 19.4883 6.577 19.4242 6.51314L13.9242 1.01314C13.8603 0.949221 13.7844 0.898516 13.7009 0.863922C13.6174 0.829328 13.5279 0.811523 13.4375 0.811523C13.2549 0.811523 13.0798 0.884047 12.9507 1.01314C12.8216 1.14224 12.7491 1.31732 12.7491 1.49989C12.7491 1.68246 12.8216 1.85755 12.9507 1.98664L17.2779 6.31239L1.0625 6.31239C0.880159 6.31239 0.70529 6.38482 0.576359 6.51375C0.447427 6.64269 0.374996 6.81755 0.374996 6.99989Z" fill="#3B7B3A"/>
</svg>
