<svg width="20" height="13" viewBox="0 0 20 13" fill="none" xmlns="http://www.w3.org/2000/svg">
<path fill-rule="evenodd" clip-rule="evenodd" d="M0.37524 6.49989C0.37524 6.68223 0.447672 6.85709 0.576603 6.98603C0.705534 7.11496 0.880403 7.18739 1.06274 7.18739L17.2781 7.18739L12.951 11.5131C12.8219 11.6422 12.7494 11.8173 12.7494 11.9999C12.7494 12.1825 12.8219 12.3575 12.951 12.4866C13.0801 12.6157 13.2552 12.6883 13.4377 12.6883C13.6203 12.6883 13.7954 12.6157 13.9245 12.4866L19.4245 6.98664C19.4885 6.92278 19.5393 6.84691 19.574 6.76339C19.6086 6.67986 19.6265 6.59032 19.6265 6.49989C19.6265 6.40946 19.6086 6.31992 19.574 6.23639C19.5393 6.15287 19.4885 6.077 19.4245 6.01314L13.9245 0.513141C13.8606 0.449221 13.7847 0.398516 13.7012 0.363922C13.6176 0.329328 13.5281 0.311523 13.4377 0.311523C13.2552 0.311523 13.0801 0.384047 12.951 0.513141C12.8219 0.642235 12.7494 0.817325 12.7494 0.999891C12.7494 1.18246 12.8219 1.35755 12.951 1.48664L17.2781 5.81239L1.06274 5.81239C0.880403 5.81239 0.705534 5.88482 0.576603 6.01375C0.447672 6.14269 0.37524 6.31755 0.37524 6.49989Z" fill="#FAFAFA"/>
</svg>
