<svg width="21" height="13" viewBox="0 0 21 13" fill="none" xmlns="http://www.w3.org/2000/svg">
<path fill-rule="evenodd" clip-rule="evenodd" d="M20.1248 6.49989C20.1248 6.68223 20.0523 6.85709 19.9234 6.98603C19.7945 7.11496 19.6196 7.18739 19.4373 7.18739L3.22189 7.18739L7.54901 11.5131C7.67811 11.6422 7.75063 11.8173 7.75063 11.9999C7.75063 12.1825 7.67811 12.3575 7.54901 12.4866C7.41992 12.6157 7.24483 12.6883 7.06226 12.6883C6.8797 12.6883 6.70461 12.6157 6.57551 12.4866L1.07551 6.98664C1.01149 6.92278 0.960694 6.84691 0.926035 6.76339C0.891376 6.67986 0.873535 6.59032 0.873535 6.49989C0.873535 6.40946 0.891376 6.31992 0.926035 6.23639C0.960693 6.15287 1.01149 6.077 1.07551 6.01314L6.57551 0.513141C6.63943 0.449221 6.71532 0.398516 6.79884 0.363922C6.88235 0.329328 6.97187 0.311523 7.06226 0.311523C7.24483 0.311523 7.41992 0.384047 7.54901 0.513141C7.67811 0.642235 7.75063 0.817325 7.75063 0.999891C7.75063 1.18246 7.67811 1.35755 7.54901 1.48664L3.22189 5.81239L19.4373 5.81239C19.6196 5.81239 19.7945 5.88482 19.9234 6.01375C20.0523 6.14269 20.1248 6.31755 20.1248 6.49989Z" fill="#181818" fill-opacity="0.4"/>
</svg>
